<?xml version="1.0" encoding="UTF-8"?>
<svg xmlns="http://www.w3.org/2000/svg" viewBox="0 0 400 515">
  <defs>
    <style>
      .hand-outline {
        fill: #000000;
        fill-rule: evenodd;
      }

      .hand-outline, .hand-background {
        stroke-width: 0px;
      }

      .hand-background {
        fill: #f2f2f2;
      }
    </style>
  </defs>
  <g>
    <path class="hand-background" d="m365.4,425.25c-3.36-4.11-6.87-8.81-11.46-15.39-5.77-8.22-10.07-17.83-14.03-31.4-.51-1.8-1.06-3.54-1.2-3.85-.16-.33-.83-2.6-1.54-5.03-2.16-7.53-2.51-8.69-6.44-19.84-1.97-5.58-2.29-6.21-4.88-9.46-1.24-1.59-2.96-3.83-3.82-5.02-.87-1.18-2.23-3-3.04-4.02-.8-1.03-1.45-1.93-1.45-2.05.01-.07.1-.05.21.08.1.11,1.4.75,2.86,1.37,1.48.59,3.09,1.38,3.61,1.74,3.77,2.47,14.78,7.92,19.36,9.6,9.63,3.48,16.82,3.08,23.4-1.28,1.53-1.03,2.94-2.72,3.5-4.2,1.14-3-.04-8.14-2.53-10.94-2.06-2.31-5.67-4.04-11.01-5.28-10.2-2.35-15.4-4.25-23.37-8.57-6.56-3.56-10.69-6.35-17.04-11.44-4.74-3.82-10.84-7.38-19.4-11.34-12.8-5.92-16.81-8.31-20.69-12.3-2.66-2.72-3.13-3.51-4.01-6.7-.67-2.53-1.86-5.95-2.93-8.59-.45-1.09-1.4-3.51-2.11-5.37-.71-1.85-2.01-5.14-2.89-7.25-1.81-4.39-3.13-8.25-4.96-14.71-1.5-5.32-6.86-22.97-7.52-24.77-.24-.7-.72-2.18-1.06-3.26-.78-2.55-1.44-4.58-4.29-13.35-4.72-14.51-8.03-23.75-10.57-29.64-1.62-3.71-3.45-8.47-4.28-11.03-1.32-4.01-2.73-11.24-3.17-16-.02-.61-.2-2.51-.37-4.21-.17-1.7-.35-4.4-.45-5.99-.08-1.58-.27-4.74-.42-7.02-.14-2.28-.33-5.53-.43-7.2-.21-3.52-.6-9.52-.72-11.13-.1-1.36-.26-4.95-.5-10.67-.09-2.41-.2-4.84-.23-5.37-.68-11.81-.32-31.59,1.03-57.09,1.06-19.84,1.21-27.71.51-27.73l-1.04,10.76-.53-.05c.64-6.05,1.3-10.71,1.57-10.71l-93.84-.55c.18,0,.39.75.63,2.36.02.16.05.34.07.53l-.58-.05-.12-2.84c-.93.05-.92,21.42.22,46.64.23,5.44.52,12.08.62,14.75.17,4.23.58,12.57,1.16,22.52.55,9.55,1.4,18.81,2.65,28,2.3,17.24,2.61,22.08,1.94,31.89-.48,6.54-1.1,11.04-2.44,17.65-1.33,6.5-1.98,9.03-5.11,19.99-3.21,11.23-4.14,14.54-6.85,24.96-3.21,12.22-3.71,14.26-3.49,14.51.2.22-.04.98-2.32,7.61-.86,2.48-1.84,5.62-2.19,7-.37,1.37-1.41,4.96-2.35,7.95-1.86,5.98-1.95,6.33-3.9,13.59-.73,2.74-1.69,6.31-2.17,7.98-.45,1.69-1.29,5.16-1.87,7.73-.59,2.56-1.39,5.94-1.78,7.47-.39,1.52-1.19,5.16-1.74,8.07-1.15,6-5.03,21.67-6.54,26.52-.55,1.76-1.78,5.32-2.72,7.9-.92,2.6-2.22,6.11-2.81,7.81-1.29,3.53-2.42,7.77-2.6,9.69-.2,2.04,0,5.31.47,7.91.47,2.58,1.37,5.29,3.74,11.43.85,2.2,2.17,5.73,2.89,7.85,1.4,3.9,2.54,6.47,3.57,7.93.33.45.87,1.58,1.22,2.52,2,5.28,4.86,8,9.7,9.25,5.87,1.47,10.88-.12,14.63-4.74,1.14-1.37,3.97-6.18,4.6-7.78l.37-.97.5.29c.28.15,4.74,5.18,9.91,11.14,8.08,9.31,9.7,11.1,11.6,12.74,2.92,2.49,3.79,3.05,5.95,3.93,2.67,1.07,5.95,1.88,10.63,2.61,1.91.3,4.05.58,6.48.86,6.35.71,9.73.9,21.07,1.15,2.53.07,6.17.16,8.09.2,5.45.18,14.36-.59,17.64-1.48,3.37-.93,5.48-2.23,6.75-4.25.43-.65,1.65-2.47,2.7-4.08,2.57-3.83,6.25-10.54,9.32-17,.7-1.47,1.64-3.37,2.04-4.2.92-1.77,1.77-3.46,3.8-7.39.82-1.58,1.83-3.54,2.23-4.37.43-.82.84-1.56.95-1.66.1-.08.35.58.52,1.49.58,2.95,2.57,10.98,3.79,15.38,1.67,5.98,3.62,11.69,5.82,16.97,2.95,7.13,3.47,8.89,4.03,13.3.52,4.26.47,8.4-.27,18.21-1.04,13.82-1.03,20.98-.04,35.91.84,12.41,3.6,25.2,7.16,33.34,1.28,2.91,2.33,4.55,4.66,7.13,4.93,5.54,11.36,9.11,17.1,9.5,2.52.15,5.78-.6,7.92-1.83,1.76-1.03,3.96-3.08,4.74-4.44h-.01c1.6-2.87,1.2-5.24-2.2-13.23-2.67-6.26-3.06-7.3-4.45-12.39-1.88-6.77-3.34-14.73-3.69-20.24-.92-13.18-.84-19.1.27-25.62,1.65-9.5,3.23-24.33,3.63-33.61.38-9.07.08-15.04-1.12-23.36-.8-5.48-2.3-14.41-2.7-15.87-.13-.53-.18-.91-.11-.91s.54.63,1.03,1.38c.48.77,2.86,3.74,5.26,6.59,5.05,6.03,5.46,6.72,7.19,12.11,2.42,7.44,3.41,9.89,6.25,15.38,1.11,2.17,3.09,6.3,4.44,9.17,3.86,8.38,4.09,8.84,6.21,12.42,6.69,11.28,13.14,18.76,20.73,24.09,5.96,4.16,10.01,5.47,14.03,4.5,4.08-.98,9.02-4.73,10.48-7.94,1.61-3.56.53-6.4-5.06-13.3Zm-152.04-88.81c-.63,2.18-4.16,10.74-6.27,15.21-1.75,3.67-2.47,5.89-3.26,10-.42,2.32-.61,6.66-.31,7.9.09.33.12.63.09.67-.04.03-.56-.2-1.14-.53-2.66-1.52-9.18-2-17.49-1.35-5.41.43-8.03.81-12.11,1.79-1.37.32-2.5.6-2.6.6-.06,0-.38-.72-.71-1.6-1.02-2.86-2.48-5.07-5.05-7.72-1.24-1.29-3.06-2.88-3.99-3.55-3.34-2.35-8.31-4.2-12.99-4.85-3-.42-9.55-.82-9.78-.62-.48.43-.58-.5-.2-2.35.71-3.45.12-7.17-1.4-9.02l-.72-.89,1.69-2.26c2.57-3.39,4.01-6.01,6.66-12.21,1.32-3.08,3.36-7.6,4.54-10.03,1.17-2.42,2.83-5.94,3.66-7.79,2.9-6.35,4.87-9.21,9.72-14.17,3.5-3.58,4.04-3.92,8.05-5.43,3.42-1.3,11.63-2.63,15.45-2.54,4.75.13,16.15,1.28,17.83,1.82.39.13,3.32,6,4.28,8.51.92,2.48,3.2,10.65,3.93,14.24.4,1.8.88,4.84,1.1,6.76.21,1.93.76,6.03,1.16,9.13.78,5.77.78,7.04-.14,10.28Z"/>
    <path class="hand-background" d="m227.07-.45l-1.04,10.76-.53-.05c.64-6.05,1.3-10.71,1.57-10.71Z"/>
    <path class="hand-background" d="m133.86,1.36c-.24-1.61-.45-2.36-.63-2.36l.12,2.84.58.05c-.02-.19-.05-.37-.07-.53Z"/>
  </g>
  <g>
    <path class="hand-outline" d="m305.21,506.07c1.59-2.86,1.2-5.23-2.2-13.22-2.68-6.26-3.06-7.3-4.46-12.39-1.88-6.78-3.34-14.73-3.69-20.24-.92-13.18-.83-19.1.28-25.62,1.64-9.5,3.23-24.33,3.62-33.61.38-9.07.08-15.05-1.11-23.36-.8-5.48-2.31-14.41-2.71-15.87-.12-.53-.17-.92-.1-.91s.54.63,1.02,1.38c.49.77,2.86,3.75,5.26,6.59,5.06,6.03,5.46,6.72,7.19,12.11,2.42,7.44,3.41,9.89,6.25,15.38,1.11,2.17,3.09,6.29,4.44,9.16,3.86,8.39,4.09,8.85,6.2,12.43,6.69,11.27,13.14,18.76,20.73,24.09,5.96,4.16,10.01,5.47,14.03,4.49,4.08-.98,9.02-4.73,10.47-7.93,1.61-3.56.53-6.4-5.06-13.3-3.36-4.11-6.87-8.81-11.46-15.39-5.77-8.22-10.07-17.82-14.03-31.4-.51-1.79-1.05-3.53-1.2-3.85-.16-.33-.82-2.6-1.54-5.03-2.16-7.54-2.51-8.7-6.44-19.84-1.97-5.58-2.28-6.21-4.88-9.46-1.24-1.59-2.96-3.83-3.82-5.02-.87-1.18-2.23-3-3.04-4.02-.81-1.03-1.45-1.93-1.45-2.05,0-.07.09-.04.21.08.1.11,1.4.75,2.86,1.36,1.48.6,3.09,1.39,3.61,1.74,3.77,2.47,14.78,7.92,19.36,9.6,9.63,3.48,16.82,3.08,23.4-1.28,1.53-1.03,2.94-2.72,3.5-4.19,1.15-3-.04-8.14-2.53-10.94-2.05-2.31-5.67-4.04-11.01-5.28-10.2-2.35-15.4-4.25-23.37-8.57-6.56-3.56-10.69-6.35-17.04-11.44-4.75-3.82-10.84-7.38-19.41-11.34-12.8-5.92-16.81-8.31-20.69-12.3-2.66-2.72-3.12-3.51-4.01-6.7-.67-2.53-1.86-5.95-2.93-8.59-.45-1.08-1.4-3.5-2.11-5.37-.71-1.86-2.01-5.14-2.89-7.25-1.81-4.38-3.13-8.25-4.97-14.71-1.49-5.32-6.85-22.97-7.52-24.77-.24-.69-.72-2.18-1.06-3.26-.78-2.55-1.45-4.58-4.29-13.35-4.72-14.51-8.03-23.75-10.56-29.64-1.62-3.71-3.46-8.46-4.29-11.03-1.32-4.01-2.73-11.24-3.16-16-.03-.6-.21-2.51-.37-4.21-.17-1.7-.35-4.4-.46-5.99-.08-1.58-.27-4.74-.42-7.02-.14-2.27-.33-5.53-.43-7.19-.21-3.52-.6-9.53-.72-11.13-.1-1.36-.26-4.95-.49-10.67-.09-2.41-.2-4.84-.24-5.37-.68-11.81-.32-31.59,1.03-57.09,1.06-19.85,1.21-27.72.51-27.74-.46-.03-1.98,13.07-2.74,23.83-1.28,18.2-1.73,28.79-1.86,45.06-.06,6.52.76,27.39,1.42,36.43.18,2.2.61,9.81,1.05,17.26.36,6.32,1.06,13.83,1.67,18.17,1.23,8.73,2.73,13.59,7.8,25.57,2.46,5.76,5.2,13.42,8.43,23.42.57,1.82,1.7,5.28,2.49,7.72,1.56,4.81,3.59,11.18,5.26,16.36,1.87,5.8,4.31,13.67,5.85,18.68,2.59,8.53,4.34,13.71,5.45,16.19,2.7,6.15,4.08,9.33,4.63,10.7.33.82.94,2.26,1.32,3.19.43.94,1.24,3.44,1.85,5.6,1.45,5.11,1.98,6.39,6.26,14.96.92,1.87,2.16,4.54,2.75,5.93,2.74,6.38,6.19,12.03,10.19,16.73,3.3,3.86,6.98,7.25,15.53,14.25,1.32,1.11,2.44,2.1,2.49,2.23,0,.13.74.75,1.62,1.45,2.42,1.85,7.13,6.74,10.39,10.78,1.6,1.98,3.11,3.9,3.35,4.3l.42.7-1.3,1.16c-1.41,1.25-1.51,1.81-.22,1,.46-.28,1.17-.66,1.59-.83.64-.3.78-.25,1.14.3.25.35.38.68.3.75-.06.05-1.15.65-2.41,1.3-2.83,1.47-6.2,4-5.74,4.26.17.12.97-.16,1.8-.6,1.71-.88,6.97-3.13,7.35-3.16.14,0,.35.2.42.43.14.38,0,.57-.94,1.21-1.41.99-1.21,1.41.3.64,1.03-.51,1.06-.51,1.48.19.24.39,1.01,2.3,1.69,4.21.69,1.95,1.9,5.25,2.69,7.34,1.43,3.84,2.55,7.29,4.31,13.47,1.02,3.57,2.4,8.16,4.29,14.18,1.18,3.7,3.23,9.08,4.22,11.06l.53,1.04-1.08.72c-1.31.83-3.15,2.51-3.72,3.31-.65.98-.13,1.03.92.09.83-.74,3.17-2.18,4.22-2.6.2-.08.64.57,1.39,2.06,2.83,5.46,5.59,9.73,9.53,14.85,1.98,2.57,1.97,2.45.83,3.46-1.26,1.12-2.1,2.41-2.22,3.42-.12,1.26.81,3.89,2.17,6.11,1.6,2.59,5.34,6.6,6.59,7.07,1.22.47,3.85.58,5.19.23l1.17-.31-.1,1.06c-.34,2.83-4.66,6.67-8.85,7.84-1.97.54-4.83.32-6.77-.55-3.14-1.37-7.63-4.49-11.44-7.92-3.22-2.89-6.11-6.15-9.06-10.22-2.37-3.24-7.08-10.59-7.07-10.98.02-.4,6.25-5.76,7.17-6.17,1.17-.53,1.08-.99-.15-.77-1.75.31-4,1.47-6.12,3.19-1.28,1.01-2.08,1.51-2.2,1.38-.19-.21-1.79-3.45-5.1-10.31-1.07-2.18-2.5-5.08-3.21-6.41-2.45-4.68-4.14-8.9-5.27-13.07-.27-1-.68-2.24-.89-2.74-.24-.5-.32-.93-.25-.96,2.32-.59,4.45-1.67,6.1-3.13.81-.72.99-1.43.25-1.04-2.5,1.24-6.72,2.91-6.9,2.71-.02-.02-.16-.36-.32-.73l-.26-.67,1.88-1.41c1.01-.76,2.59-1.86,3.48-2.41.88-.56,1.65-1.13,1.65-1.27,0-.17-.68-.06-1.54.22-1.31.43-2.48,1.03-5.73,2.98-.45.26-.59.21-.86-.32-.19-.32-.32-.76-.3-.94,0-.41,3.77-3.82,4.76-4.34,1.26-.63.55-.85-1.1-.36-1.11.35-1.94.81-3.21,1.81l-1.68,1.36-3.42-3.93c-4.33-4.99-8.76-11.22-9.17-12.88-.41-1.68-1.09-4.75-1.65-7.31-.27-1.25-.77-3.22-1.11-4.39-2.71-8.8-4.13-12.52-6.55-17.09-.78-1.53-1.56-3.08-1.7-3.43-.42-1.12-.8-.68-.62.71.24,1.94.78,3.79,1.92,6.51.98,2.39,1.83,4.9,3.16,9.43.37,1.25.87,2.8,1.08,3.46.7,2.14,2.46,9.79,4.09,17.69,1.15,5.6,1.32,6.43,1.78,9.19.26,1.44.69,3.85.96,5.37.56,2.9,1.16,7.35,1.38,10.21.06.95.19,2.45.28,3.35l.16,1.61-1.63.44c-.89.22-1.62.53-1.64.65,0,.13.75.24,1.68.22,2.35,0,2.21.56-.36,1.34-2.45.76-3.07,1.05-2.85,1.29.17.19,3.27,0,4.46-.23.39-.08.44-.03.42.5-.04.57-.09.62-.66.63-.82-.02-3.11.75-3.13,1.03-.04.26,2.92.4,3.47.18.47-.22-.43,12.76-1.37,19.65-.38,2.79-.77,5.8-.88,6.63-.19,1.72-.68,5.82-.93,7.8-.09.75-.45,3.13-.83,5.31-.99,5.83-1.09,13.01-.32,22.32.13,1.7.11,1.82-.63,2.34-.43.31-1.16.67-1.59.78-.89.22-1.52.64-1.32.86.05.05.98.23,2.07.38l1.98.26-.81.48c-.92.55-.89.73.09.7l.7-.04.18,1.53c.15,1.34.94,5.59,1.7,9.22.17.79.59,2.67.97,4.19.53,2.12.6,2.8.31,2.99-.8.54-3.43,4.29-3.82,5.51-.58,1.8-.34,3.97.92,8.64,1.68,6.21,2.69,7.27,7.1,7.38.98.04,2.24-.1,2.84-.3l1.05-.32-.14,1.17c-.19,1.38-1.02,2.48-3.15,4.11-2.12,1.62-5.33,2.48-8.16,2.17-5.47-.58-12.58-5.21-16.34-10.61-2.51-3.62-3.85-6.98-5.95-14.86-1.34-5.07-2.5-11.33-3.02-16.16-.15-1.45-.27-2.65-.27-2.72-.04-.2,3.96-2.12,6.12-2.96,2.52-.99,2.58-1.02,2.37-1.26-.39-.43-4.79.58-8.16,1.87-.34.14-.47-.49-.71-3.63-.48-6.23-.81-13.75-.67-15.19.03-.19.06-1.97.09-3.95,0-1.95.31-8.35.67-14.22.34-5.86.6-11.37.54-12.23q-.05-1.58.75-1.8c1.1-.28,2.34-1.07,2.98-1.91.9-1.14.45-1.27-1.11-.3-.41.27-1.19.56-1.71.65-.99.18-1.04.12-1.23-1.57-.01-.06,1.49-.57,3.28-1.12,1.81-.57,3.43-1.17,3.61-1.34.53-.5-1.52-.36-4.36.32-1.37.31-2.58.47-2.68.36-.12-.13-.21-.55-.23-.98-.03-.68.03-.76.72-.97.42-.15,1.54-.36,2.49-.46.99-.14,1.69-.37,1.65-.53-.01-.16-1.25-.38-2.71-.45l-2.66-.15-.63-2.03c-.33-1.12-1.55-4.24-2.68-6.94-3.24-7.71-5.83-15.34-7.37-21.88-.53-2.22-1.28-5.38-1.7-7.06-1.35-5.49-1.82-7.57-1.75-7.96.02-.23.57-1.32,1.22-2.48,1-1.79,3.29-6.52,6.39-13.15.41-.9.81-1.7.88-1.76.06-.05,1.25-2.76,2.66-6.03,1.4-3.27,3.25-7.09,4.08-8.54,1.8-3.05,3.8-7.04,4.81-9.63.8-1.98,2.11-6.78,2.08-7.61-.04-.94-.47-.52-1.2,1.18-.44.95-1.15,2.43-1.61,3.31-.46.89-1.58,3.22-2.46,5.18-.88,2-2.14,4.56-2.76,5.72-3.06,5.76-5.39,10.28-5.92,11.62-.68,1.69-2.03,4.6-5.42,11.77-3.07,6.49-4.15,8.6-4.48,8.65-.12.01-.37.46-.52.97-.26.83-2.11,4.32-3.68,6.9-.79,1.31-9.68,18.57-12.99,25.21-1.27,2.57-4.77,8.15-5.54,8.87-.13.12-.72-.31-1.49-1.07-.71-.68-1.48-1.24-1.69-1.25s-.36.01-.33.05c.28.39,2.18,3.55,2.16,3.63-.02.06-.24.42-.53.8-.49.67-.54.68-.77.15-.5-1.04-3.79-5.01-3.99-4.82-.11.1.02.55.32.99,1.33,2.15,2.75,5.03,2.51,5.14-.16.05-.8-.56-1.67-1.58-1.93-2.25-2.25-1.73-.63,1.11l.6,1.08-1.83.45c-3.11.75-12.32,1.13-21.8.92-.66-.02-2.41-.01-3.87,0-6.81.1-13.41-.12-17.58-.59-6.51-.7-7.59-.85-10.76-1.5l-2.82-.6.14-1.64c.09-.88.06-1.63-.05-1.64-.08-.02-.4.57-.69,1.26-.62,1.5-1.07,2.06-.57.68.19-.5.41-1.61.48-2.49.11-1.28.07-1.5-.28-1.33-.23.14-.69,1.12-1.06,2.18-.73,2.2-1.48,2.73-1,.73.36-1.6.03-2.05-.59-.76-.22.5-.54,1.06-.68,1.21-.4.42-1.85-.53-4.87-3.2-2.3-2.03-3.65-3.42-8.03-8.5-2.91-3.34-5.63-6.61-6.09-7.2-.82-1.15-6.54-6.98-8.04-8.24-.8-.67-.81-.69-.35-1.8.38-.98,2.09-6.24,4.5-13.82l.57-1.82,5.11.36c6.29.45,9.3,1.04,13.03,2.59,3.77,1.56,6.2,3.3,9.09,6.52,2.35,2.65,3.52,4.71,4.37,7.82.63,2.3.62,3.59-.03,8.04-.54,3.64-.57,5.95-.08,6.5.19.21.28-.03.4-.69.07-.53.48-2.07.89-3.42.94-2.96,1.54-6.26,1.45-7.99l-.05-1.26.85-.22c2.86-.75,9.02-1.69,13.37-2.03,6.16-.5,10.2-.45,13.17.13,3.43.68,3.9,1.02,7.66,5.54,3.27,3.95,5.87,6.42,6.19,5.87.16-.23-.99-1.98-4.7-7.13l-1.85-2.53.14-4.19c.19-5.35.37-6.62,1.49-10.17.88-2.84,1.34-3.94,3.76-9.33,1.76-3.92,3.79-9.13,4.6-11.69.96-3.12,1.13-5.78.52-10.01-.27-1.98-.74-5.58-1.02-8.01-.49-4.03-.88-6.28-2.17-12.27-.96-4.5-4.2-13.32-6.26-17.01-.41-.72-.64-1.32-.55-1.37.11-.03,1.54.14,3.18.41,2.49.37,6.89.48,8.29.2.9-.2.12-.59-2.03-1.03-1.28-.27-5.09-1.19-8.44-2.05-5.6-1.45-6.82-1.65-13.95-2.3-4.31-.41-8.69-.69-9.74-.66-3.99.21-10.08,1.72-15.12,3.78-.2.07.16-.92.84-2.23,1.58-3.12,3-7.71,2.45-7.89-.15-.04-.69.77-1.27,1.82-1.32,2.46-4.03,6.83-5.09,8.21-.47.57-2.25,2.47-3.95,4.18-5.88,5.87-7.75,8.54-11.1,16.02-.92,1.99-2.75,5.98-4.1,8.86s-3.24,7.15-4.16,9.52c-1.98,4.92-3.12,7.21-5.63,11.26l-1.8,2.94-1.61-.75c-1.77-.82-6-1.4-6.03-.84-.01.18.76.7,1.85,1.25,2.78,1.41,5.24,3.12,5.8,4.06,1.35,2.24,1.17,6.13-.47,11.39-2.67,8.51-4.1,12.8-4.96,14.91-2.01,5.01-5.07,10.19-6.73,11.43l-.73.55-.06-1.97c-.09-2.52-1.6-8-2.68-9.83-1.65-2.71-3.67-3.98-7.36-4.53-2.68-.39-11.2-.86-12.51-.66-1.07.15-1.11.15-1.36-.67-.18-.46-1.23-3.26-2.35-6.24-1.12-2.96-2.34-6.36-2.69-7.56-.66-2.14-1.45-6.55-1.33-7.33.03-.3.53-.31,1.99.01,2.17.47,5.97.62,6.37.27.15-.13-.96-.46-2.49-.78-4.23-.86-5.88-1.44-5.89-2.02,0-.26.08-.58.21-.7.23-.21,7.25.35,11.26.85.87.11,1.57.09,1.52-.07-.12-.71-5.02-2.04-9.66-2.62l-2.88-.36.21-.87c.1-.49.27-.94.36-1.02.07-.07.7-.02,1.35.11,1.71.36,5.32.52,5.33.24,0-.14-1.35-.6-2.99-1.01-1.67-.44-3.09-.83-3.17-.85-.17-.07.93-3.15,3.82-10.77,2.86-7.63,4.37-12.46,5.97-19.57.23-.98.87-3.61,1.4-5.82.53-2.2,1.21-5.18,1.49-6.65,1.07-5.62,1.5-7.73,2.29-11.05,2.59-10.95,3.32-13.88,4.07-16.53.74-2.61,1.28-4.58,3.24-11.7.34-1.14,1.09-3.7,1.72-5.71.63-1.97,1.67-5.35,2.27-7.47,2.03-6.99,2.8-9.46,4.56-14.56,1.89-5.55,3.74-12.48,5.31-19.76.56-2.59,1.3-6.11,1.67-7.77.37-1.68,1.04-4.25,1.5-5.71.45-1.45,1.12-3.84,1.53-5.27.59-2.21,2.1-7.29,3.19-10.71,2.61-8.28,4.59-17.9,5.47-26.48.98-9.87.99-11.76.1-25.7-.12-2.18-.72-7.58-1.5-13.88-.22-1.92-.53-4.44-.65-5.65-1.09-10.27-1.14-10.93-1.9-21.7-.21-2.88-.88-15.71-1.23-23.34-.13-3.05-.43-9.13-.63-13.53-.2-4.4-.37-8.18-.36-8.4.01-.21-.04-1.1-.1-1.99-.08-.88-.19-3.44-.3-5.63-.08-2.21-.25-6.3-.37-9.05-.11-2.77-.22-5.69-.24-6.52-.09-2.48-.67-8.96-1.03-11.37-1.52-10.23-1.75,14.31-.41,44.28.23,5.44.52,12.09.63,14.75.16,4.23.58,12.57,1.16,22.52.54,9.55,1.4,18.81,2.65,28.01,2.3,17.23,2.61,22.08,1.94,31.89-.48,6.54-1.09,11.04-2.44,17.65-1.33,6.5-1.97,9.02-5.11,19.99-3.21,11.23-4.13,14.54-6.84,24.96-3.22,12.21-3.71,14.26-3.49,14.51.2.22-.04.98-2.32,7.61-.86,2.48-1.85,5.61-2.2,7-.36,1.37-1.41,4.96-2.35,7.95-1.85,5.98-1.94,6.33-3.89,13.59-.73,2.74-1.7,6.31-2.17,7.98-.45,1.69-1.29,5.17-1.88,7.73s-1.38,5.94-1.78,7.47c-.39,1.52-1.19,5.16-1.73,8.07-1.15,6-5.03,21.67-6.54,26.52-.55,1.76-1.79,5.32-2.72,7.91-.92,2.6-2.21,6.1-2.81,7.81-1.28,3.52-2.42,7.77-2.6,9.69-.19,2.04,0,5.31.48,7.91.47,2.58,1.37,5.29,3.73,11.43.85,2.2,2.17,5.74,2.9,7.85,1.4,3.91,2.53,6.47,3.56,7.94.33.44.87,1.58,1.22,2.52,2.01,5.28,4.86,8,9.71,9.25,5.86,1.48,10.87-.11,14.63-4.74,1.14-1.37,3.97-6.18,4.59-7.78l.38-.98.5.29c.27.16,4.74,5.18,9.91,11.14,8.08,9.31,9.7,11.1,11.6,12.74,2.92,2.49,3.79,3.05,5.95,3.93,3.76,1.5,8.72,2.51,17.11,3.47,6.35.71,9.73.9,21.08,1.15,2.52.07,6.17.16,8.09.21,5.44.18,14.36-.59,17.63-1.48,3.37-.94,5.48-2.24,6.75-4.25.44-.65,1.65-2.47,2.7-4.08,2.58-3.83,6.25-10.53,9.32-17,.7-1.47,1.64-3.37,2.05-4.2.92-1.77,1.77-3.46,3.8-7.39.82-1.57,1.83-3.54,2.23-4.37.42-.82.84-1.56.95-1.66.1-.09.35.57.52,1.49.58,2.95,2.56,10.98,3.79,15.38,1.67,5.98,3.62,11.69,5.82,16.97,2.95,7.14,3.47,8.89,4.03,13.31.52,4.25.47,8.4-.27,18.21-1.04,13.81-1.03,20.98-.04,35.91.84,12.41,3.59,25.2,7.16,33.34,1.27,2.91,2.33,4.55,4.65,7.13,4.93,5.55,11.36,9.11,17.1,9.5,2.52.16,5.79-.6,7.93-1.83,1.75-1.02,3.96-3.08,4.74-4.44h0s0,0,0,0Zm-4.18-5.26c-2.28-.22-4.05-.73-4.62-1.38-.17-.19-.84-2.32-1.5-4.76-1.55-5.69-1.54-6.58.28-9.67.73-1.22,1.36-2.22,1.43-2.22.06-.01.3.64.55,1.44.47,1.63,1.87,5.14,3.76,9.61,1.47,3.44,2.67,6.87,2.48,7.04-.07.07-1.14.05-2.38-.06h0Zm64.39-66.6c-2.57-.31-3.14-.65-5.46-3.3-2.62-2.99-4.29-6.14-4.3-8.18.01-.32.4-1.1.88-1.73s1.04-1.36,1.24-1.63c.32-.46.38-.45.8.22.23.41,2.24,2.93,4.42,5.6,3.68,4.53,5.04,6.52,5.72,8.3l.26.7-.91.12c-.48.06-1.68,0-2.65-.11h0Zm-1.76-94.44c-6.79,3.75-14.95,2.8-26.73-3.11-1.19-.59-3.58-1.8-5.28-2.64-2.28-1.14-3.09-1.63-3.02-1.89.37-1.28,1.34-6.14,1.24-6.25-.25-.28-.87.5-2.01,2.56-.63,1.1-1.27,2.17-1.4,2.32-.14.17-.64.03-1.45-.43-.66-.39-2.77-1.34-4.67-2.11-5.04-2.04-6.41-2.97-12.97-8.69-1.68-1.47-4.64-4.05-6.6-5.75-5.24-4.56-8.99-8.26-11.44-11.29-3.51-4.32-7.02-10.15-9.48-15.84-.91-2.05-1.84-4.05-2.09-4.47-.49-.81-.47-1.43.03-.87,1.06,1.19,7.51,4.63,16.88,8.95,7.2,3.33,10.94,5.27,11.56,6.01.1.11-.17.95-.56,1.84-.71,1.58-.88,2.51-.5,2.53.11,0,.69-.75,1.3-1.69.61-.91,1.19-1.66,1.29-1.65.11,0,.05.13-.1.26-.7.62-1.42,4.92-.84,4.95.09.03.62-.78,1.18-1.72,1.33-2.25,1.67-2.56,2.17-2,.3.34.27.7-.05,1.46-.51,1.12-.6,2.05-.17,1.66.15-.13.54-.72.9-1.26l.64-1.05.61.5c.37.29,1.54,1.16,2.62,1.95,1.07.79,3.24,2.44,4.81,3.63,3.12,2.41,8.21,5.61,12.07,7.64l1.57.82-.43,2.21c-.67,3.45-.15,3.73.94.48.6-1.82.95-2.26,1.33-1.83.35.4,7.48,3.37,10.47,4.35,1.69.58,3.14,1.11,3.21,1.19.05.05.26.67.45,1.34.26.94.62,1.57,1.51,2.57,1.02,1.12,1.56,1.5,3.99,2.67,3.26,1.59,5.16,2.14,7.86,2.34l1.91.15,1.08-1.1,1.12-1.09.36.68c.53.9,1.26,3.32,1.45,4.66.13,1.13-.23,2.96-.74,3.72-.6.87-2.51,2.43-4.04,3.28h0Zm-2.08-12.14c-.79-.1-1.92-.31-2.5-.47-1.34-.38-5.79-2.56-6.64-3.27-.78-.66-2.01-2.83-1.61-2.91.14-.02,2.43.53,5.04,1.25,4.35,1.14,7.31,2.28,8.94,3.43l.62.43-1.2.85c-1.07.79-1.33.85-2.64.7h0Zm-159.11,42.07c-2.66-1.52-9.18-2.01-17.49-1.35-5.41.43-8.03.81-12.11,1.79-1.39.33-2.54.62-2.6.6-.06.01-.38-.7-.71-1.59-1.03-2.86-2.49-5.07-5.05-7.73-1.25-1.28-3.06-2.87-4-3.55-3.33-2.35-8.3-4.19-12.99-4.84-3-.42-9.55-.82-9.77-.62-.49.43-.58-.5-.2-2.35.71-3.45.12-7.17-1.4-9.02l-.73-.89,1.7-2.26c2.56-3.39,4.01-6.01,6.65-12.2,1.32-3.09,3.37-7.61,4.54-10.03s2.83-5.94,3.67-7.8c2.89-6.35,4.86-9.21,9.71-14.16,3.5-3.58,4.04-3.93,8.05-5.43,3.42-1.3,11.63-2.63,15.45-2.54,4.75.12,16.15,1.28,17.83,1.81.39.14,3.32,6,4.28,8.52.92,2.48,3.2,10.64,3.93,14.23.4,1.8.88,4.84,1.1,6.76.21,1.94.76,6.03,1.16,9.13.78,5.77.78,7.04-.14,10.28-.63,2.18-4.16,10.73-6.27,15.21-1.75,3.67-2.47,5.89-3.26,9.99-.42,2.33-.6,6.67-.3,7.91.09.32.12.63.08.66s-.55-.2-1.14-.53h0Zm-85.07,13.92c-2.27.6-5.78.39-7.8-.48-3.58-1.53-5.08-3.29-7.45-8.92-.78-1.81-1.53-3.43-1.65-3.55-.13-.15-.68-1.32-1.19-2.61l-.95-2.36,5.12.32c5.25.35,7.88.74,9.64,1.42,1.27.49,2.68,2.06,3.44,3.87.59,1.34,1.54,5.36,1.89,7.92.09.7.35,1.82.54,2.45.21.66.3,1.24.19,1.34-.1.09-.91.34-1.8.6h0Z"/>
    <path class="hand-outline" d="m366.93,336.4c.27-.91-.63-.78-1.83.29-.58.52-1.84,1.33-2.8,1.8-.95.48-1.91,1.03-2.1,1.19-.34.31-.33.32.28.39,1.52.16,6.07-2.44,6.44-3.68h0Z"/>
    <path class="hand-outline" d="m358.91,340.17c-.08-.51-.86-.48-2.05,0-1.02.44-1.08.49-.76.74.36.28,2.22.11,2.62-.24.13-.11.21-.36.19-.5Z"/>
    <path class="hand-outline" d="m294.79,508.21c-.08-.09-.93-.22-1.89-.27-1.74-.1-5.47-1.43-7.53-2.68-1.11-.7-1.46-.59-.74.22,1.29,1.45,5.5,3.19,8.08,3.34,1.55.07,2.47-.17,2.08-.61h0Z"/>
    <path class="hand-outline" d="m361.82,442.43c-.13-.15-.81-.12-1.52.07-1.32.37-3.39.35-5.22,0-1.32-.28-1.45.18-.22.7,1.35.58,3.86.74,5.32.34,1.47-.4,1.97-.73,1.64-1.11h0Z"/>
    <path class="hand-outline" d="m352.66,441.58c-.42-.47-2.18-1.06-2.45-.82-.22.2.47.93,1.36,1.45.86.48,1.66,0,1.09-.64h0Z"/>
    <path class="hand-outline" d="m282.73,503.16c-.08-.37-2.46-1.72-2.69-1.52-.26.23,1,1.8,1.66,2.06.56.21,1.11-.08,1.03-.54h0Z"/>
    <path class="hand-outline" d="m260.16,331.11c1-2.27,3.46-7.01,5.28-10.14,2-3.47,3.65-7.82,3.16-8.36-.39-.43-.75.06-1.53,2.03-.4,1-1.92,4.17-3.39,7.05-3.24,6.38-5.21,11.36-4.48,11.35.07,0,.52-.86.95-1.93Z"/>
    <path class="hand-outline" d="m208.1,372.89c-.62-1.16-1.2-2.49-1.28-3-.26-1.79-1.12-1.63-.99.18.12,1.54.46,2.26,1.68,3.66,1.65,1.93,1.92,1.59.59-.84h0Z"/>
    <path class="hand-outline" d="m205.34,377.2c-.2-.93-3.36-4.72-3.96-4.76-.71-.03-.42.44,1.63,2.86,1.78,2.08,2.47,2.67,2.33,1.9h0Z"/>
    <path class="hand-outline" d="m268.27,291.97c-.69-1.12-5.02-9.51-5.53-10.74-.49-1.23-.82-.85-.44.5.47,1.63,2.35,5.97,3.75,8.71,1.04,2,1.45,2.65,1.79,2.69.79.13.96-.35.44-1.16h0Z"/>
    <path class="hand-outline" d="m217.6,335.73c1.15-2.98,1.38-4.09,1.09-5.81-.21-1.33-.75-2.4-1.09-2.1-.07.07-.08.98.02,2,.11,1.45-.05,2.6-.75,5.11-.49,1.79-.85,3.31-.77,3.41.25.28.61-.34,1.48-2.6h0Z"/>
    <path class="hand-outline" d="m167.52,377.06c.21-2.23,0-4.92-.45-5.88-.43-.9-.57-.34-.35,1.31.11.85.16,2.76.11,4.21-.03,1.44-.03,2.69.04,2.76.29.32.49-.4.66-2.41h0Z"/>
    <path class="hand-outline" d="m268.22,287.97c-.41-.88-1.29-1.65-1.56-1.41-.15.13.74,2.34,1.07,2.71.1.11.35.06.56-.12.26-.23.24-.55-.07-1.18h0Z"/>
    <path class="hand-outline" d="m265.25,290.61c-.56-.81-2.52-2.91-2.63-2.81-.31.27.49,1.99,1.23,2.71.54.53.87.67,1.13.52.22-.13.34-.3.27-.42h0Z"/>
    <path class="hand-outline" d="m217.76,322.63c-.25-7.58-3.07-21.8-4.73-23.86-.9-1.09-.98-.31-.18,1.8.43,1.17,1.09,3.5,1.46,5.16.62,2.74,1.93,11.44,2.3,15.38.22,2.22.67,4.23.96,4.41.15.09.23-1.22.18-2.89h0Z"/>
    <path class="hand-outline" d="m147.54,356.59c-.33-.37-2.07-.65-2.39-.37-.52.47,0,.85,1.14.81.96-.01,1.47-.2,1.25-.44Z"/>
    <path class="hand-outline" d="m143.29,356.34c-.41-.46-5.8-1.04-6.19-.69-.27.24-.09.85.3.95.46.09,5.77.05,5.88-.05.05-.05.06-.16.01-.21h0Z"/>
    <path class="hand-outline" d="m211.22,275.04c-.31-.8-6.32-4.98-8.87-6.15-2.26-1.02-5.49-1.75-8.66-1.95-4.23-.28-4.57-.18-12.39,3.85-2.2,1.15-4.35,2.22-4.73,2.36-.41.16-.84.38-1.02.53-.25.22-.19.28.19.34.97.14,4.84-1.1,8.93-2.9,5.16-2.23,5.84-2.4,8.36-2.26,5.08.3,8.09,1.42,13.34,4.93,2.84,1.92,4.11,2.47,4.62,2.02.21-.19.33-.53.22-.77h0Z"/>
    <path class="hand-outline" d="m133.32,344.34c-.03-.75-1.61-2.68-2.7-3.26-1.43-.81-1.49-.46-.17,1.02.67.75,1.47,1.8,1.78,2.33.45.78.59.89.82.69.17-.15.28-.49.28-.78h0Z"/>
    <path class="hand-outline" d="m200.15,282.91c-.25-.28-2.73-.97-5.31-1.54-1.78-.37-4.18-.55-7.15-.55-4.86-.02-6.46.19-6.5.87-.02.42-.15.44,3.27.23,4.07-.22,7.74-.04,11.49.58,3.69.63,4.45.69,4.2.41h0Z"/>
    <path class="hand-outline" d="m134.05,336.49c-.49-.55-2.42-1.2-2.72-.94-.17.15.17.42,1.14.9,1.42.73,2.22.75,1.58.04h0Z"/>
    <path class="hand-outline" d="m205.47,268.69c-.1-.53-5.6-2.79-8.38-3.45-3.88-.92-6.96-.71-10.59.73-3.01,1.19-1.53,1.5,2.63.53,1.37-.31,3.23-.56,4.16-.54,1.92.04,5.38.9,7.43,1.84,2.97,1.34,4.91,1.7,4.76.9h0Z"/>
    <path class="hand-outline" d="m144.56,314.05c1.47-2.42,1.75-3.13,1.42-3.51-.22-.25-.36-.18-.68.29-.73,1.05-2.72,5.35-2.58,5.52.22.25.48-.08,1.84-2.3h0Z"/>
    <path class="hand-outline" d="m147.78,307.85c.03-.19.38-1.05.79-1.95.43-.89,1.08-2.41,1.5-3.42,1.53-3.67,3.68-7.14,7.04-11.27,2.15-2.66,1.86-2.98-.53-.57-3.71,3.77-5.59,6.62-8.16,12.43-1.61,3.72-2.02,4.95-1.66,5.25.37.27.98,0,1.02-.48h0Z"/>
    <path class="hand-outline" d="m116.67,294.3c-.03-.82-4.81-8.51-6.38-10.28-1.17-1.32-1.42-1-.49.59.39.7,1.83,3.15,3.16,5.48,1.34,2.3,2.56,4.35,2.71,4.52.37.41,1.02.2,1-.32h0Z"/>
    <path class="hand-outline" d="m117.19,290.51c-.94-1.43-3.19-4.16-3.34-4.03-.28.25,1.91,3.55,3.2,4.82.46.44.57-.13.14-.79h0Z"/>
    <path class="hand-outline" d="m112.82,291.77c-.92-1.18-1.35-1.3-.96-.25.43,1.13.98,1.71,1.39,1.48.29-.2.22-.43-.42-1.23h0Z"/>
    <path class="hand-outline" d="m119.19,284.02c-.13-.26-2.36-3.65-4.91-7.42-.31-.46-.62-.72-.73-.62-.09.08-.17.18-.14.22s1.19,1.91,2.57,4.17c1.38,2.28,2.61,4.18,2.73,4.21.35.09.62-.22.48-.56h0Z"/>
    <path class="hand-outline" d="m118.43,279.37c-.1-.64-2.15-3.13-2.39-2.92-.11.1-.08.34.07.54.15.17.6.84,1,1.44.75,1.15,1.44,1.61,1.32.94h0Z"/>
    <path class="hand-outline" d="m115.73,274.48c0-.34-2.1-2.62-2.29-2.45-.16.15.56,1.41,1.32,2.27.45.51.94.61.97.18h0Z"/>
  </g>
</svg>